<svg width="643" height="147" viewBox="0 0 643 147" fill="none" xmlns="http://www.w3.org/2000/svg">
<path d="M336.13 46.95C347.14 46.95 353.47 52.32 355.46 63.32H348.92C347.48 56.3 343.48 52.59 335.37 52.59C325.67 52.59 319.62 60.5 319.62 73.37C319.62 86.24 325.95 93.87 335.92 93.87C344.31 93.87 348.37 89.12 349.89 79.63H356.49C354.98 92.91 348.1 99.51 335.85 99.51C317.76 99.51 313.22 83.69 313.22 73.44C313.22 63.19 317.83 46.95 336.13 46.95Z" fill="#B1B1B1"/>
<path d="M379.67 82.86L374.37 97.93H367.56L385.45 47.78H393.71L411.32 97.93H404.16L399 82.86H379.67ZM389.51 54.65L381.25 77.49H397.21L389.5 54.65H389.51Z" fill="#B1B1B1"/>
<path d="M434.5 76.66V97.92H428.1V47.77H448.81C458.72 47.77 464.29 53.07 464.29 62.49C464.29 71.09 458.51 76.66 450.26 76.66H434.5ZM447.84 71.02C453.96 71.02 457.61 67.72 457.61 62.21C457.61 56.7 453.96 53.4 447.84 53.4H434.49V71.01H447.84V71.02Z" fill="#B1B1B1"/>
<path d="M487.87 97.92H481.4V47.77H487.87V97.92Z" fill="#B1B1B1"/>
<path d="M526.87 97.92H520.47V53.41H503.96V47.77H543.31V53.41H526.87V97.92Z" fill="#B1B1B1"/>
<path d="M563.94 82.86L558.64 97.93H551.83L569.72 47.78H577.98L595.59 97.93H588.44L583.28 82.86H563.94ZM573.78 54.65L565.52 77.49H581.48L573.78 54.65Z" fill="#B1B1B1"/>
<path d="M618.01 92.28H642.78V97.92H611.62V47.77H618.02V92.28H618.01Z" fill="#B1B1B1"/>
<path d="M296.94 0H293.19V146.44H296.94V0Z" fill="#E31B13"/>
<path fill-rule="evenodd" clip-rule="evenodd" d="M0 99.5L24.2 42.07H36.23L60.26 99.49H49.8L31.41 55.78L21.58 77.74H33.26L38.08 89.15H15.5L10.99 99.49L0 99.5Z" fill="white"/>
<path fill-rule="evenodd" clip-rule="evenodd" d="M80.06 99.5L104.27 42.07H116.3L140.32 99.49H129.86L111.48 55.78L101.64 77.74H113.32L118.14 89.15H95.56L91.05 99.49L80.06 99.5Z" fill="white"/>
<path fill-rule="evenodd" clip-rule="evenodd" d="M40.08 42.07L64.28 99.51H76.31L110.58 16.88H100.11L71.49 85.79C57.81 55.25 59.03 60.35 51.07 42.09L40.08 42.07Z" fill="white"/>
<path fill-rule="evenodd" clip-rule="evenodd" d="M141.18 41.92V99.5H174.48V89.01H151.27V41.92H141.18Z" fill="white"/>
<path d="M217.5 70.67C217.5 81.19 208.96 89.73 198.44 89.73C187.92 89.73 179.38 81.19 179.38 70.67C179.38 60.15 187.92 51.61 198.44 51.61C208.96 51.61 217.5 60.15 217.5 70.67ZM227.28 70.67C227.28 54.75 214.36 41.83 198.44 41.83C182.52 41.83 169.6 54.75 169.6 70.67C169.6 86.59 182.52 99.51 198.44 99.51C214.36 99.51 227.28 86.59 227.28 70.67Z" fill="white"/>
<path fill-rule="evenodd" clip-rule="evenodd" d="M228.98 99.5V41.9H240.26L263.42 80.54V41.92H274.33V99.5L263.15 99.49L239.97 60.92V99.5H228.98Z" fill="white"/>
</svg>
