<svg width="150" height="35" viewBox="0 0 150 35" fill="none" xmlns="http://www.w3.org/2000/svg">
<path d="M78.4396 10.957C81.0089 10.957 82.4861 12.2102 82.9504 14.7772H81.4243C81.0882 13.139 80.1548 12.2732 78.2622 12.2732C75.9986 12.2732 74.5868 14.1191 74.5868 17.1224C74.5868 20.1258 76.064 21.9063 78.3906 21.9063C80.3485 21.9063 81.2959 20.7979 81.6506 18.5833H83.1908C82.8384 21.6823 81.2329 23.2225 78.3742 23.2225C74.1527 23.2225 73.0933 19.5307 73.0933 17.1388C73.0933 14.7468 74.1691 10.957 78.4396 10.957Z" fill="white"/>
<path d="M88.6004 19.3367L87.3636 22.8535H85.7744L89.9493 11.1504H91.8768L95.9863 22.8535H94.3154L93.1113 19.3367H88.6004ZM90.8967 12.7536L88.9691 18.0836H92.6936L90.8944 12.7536H90.8967Z" fill="white"/>
<path d="M105.071 17.8922H101.396V22.8535H99.9023V11.1504H104.735C107.048 11.1504 108.348 12.3872 108.348 14.5855C108.348 16.5924 106.999 17.8922 105.074 17.8922H105.071ZM104.509 16.576C105.937 16.576 106.789 15.8059 106.789 14.5201C106.789 13.2343 105.937 12.4642 104.509 12.4642H101.394V16.5737H104.509V16.576Z" fill="white"/>
<path d="M113.85 22.8535H112.34V11.1504H113.85V22.8535Z" fill="white"/>
<path d="M122.951 22.8535H121.457V12.4666H117.604V11.1504H126.787V12.4666H122.951V22.8535Z" fill="white"/>
<path d="M131.601 19.3367L130.365 22.8535H128.775L132.95 11.1504H134.878L138.987 22.8535H137.319L136.115 19.3367H131.604H131.601ZM133.898 12.7536L131.97 18.0836H135.695L133.898 12.7536Z" fill="white"/>
<path d="M144.22 21.5373H150V22.8535H142.729V11.1504H144.222V21.5373H144.22Z" fill="white"/>
<path d="M69.2941 0H68.4189V34.1734H69.2941V0Z" fill="white"/>
<path fill-rule="evenodd" clip-rule="evenodd" d="M0 23.2183L5.64734 9.81641H8.45468L14.0624 23.216H11.6214L7.32988 13.0158L5.03594 18.1404H7.7616L8.8864 20.8031H3.6171L2.56464 23.2137L0 23.2183Z" fill="white"/>
<path fill-rule="evenodd" clip-rule="evenodd" d="M18.6836 23.2183L24.3333 9.81641H27.1406L32.7459 23.216H30.305L26.0158 13.0158L23.7195 18.1404H26.4452L27.57 20.8031H22.3007L21.2482 23.2137L18.6836 23.2183Z" fill="white"/>
<path fill-rule="evenodd" clip-rule="evenodd" d="M9.35303 9.81783L15.0004 23.2221H17.8077L25.805 3.93945H23.3617L16.6829 20.0204C13.4905 12.8935 13.7752 14.0837 11.9177 9.82249L9.35303 9.81783Z" fill="white"/>
<path fill-rule="evenodd" clip-rule="evenodd" d="M32.9458 9.78359V23.2205H40.7167V20.7726H35.3004V9.78125L32.9458 9.78359Z" fill="white"/>
<path d="M50.7566 16.488C50.7566 18.9429 48.7637 20.9358 46.3088 20.9358C43.8538 20.9358 41.8609 18.9429 41.8609 16.488C41.8609 14.033 43.8538 12.0401 46.3088 12.0401C48.7637 12.0401 50.7566 14.033 50.7566 16.488ZM53.0389 16.488C53.0389 12.7728 50.0239 9.75781 46.3088 9.75781C42.5936 9.75781 39.5786 12.7728 39.5786 16.488C39.5786 20.2031 42.5936 23.2181 46.3088 23.2181C50.0239 23.2181 53.0389 20.2031 53.0389 16.488Z" fill="white"/>
<path fill-rule="evenodd" clip-rule="evenodd" d="M53.4346 23.2193V9.77772L56.0669 9.77539L61.4715 18.7948V9.78239H64.0175V23.2193L61.4085 23.217L55.9992 14.2163V23.2193H53.4346Z" fill="white"/>
</svg>
