<svg width="100" height="23" viewBox="0 0 100 23" fill="none" xmlns="http://www.w3.org/2000/svg">
<path d="M52.2932 7.30421C54.006 7.30421 54.9908 8.13964 55.3004 9.85096H54.283C54.0589 8.75883 53.4366 8.18165 52.1749 8.18165C50.6659 8.18165 49.7246 9.41224 49.7246 11.4145C49.7246 13.4167 50.7094 14.6038 52.2605 14.6038C53.5658 14.6038 54.1974 13.8648 54.4339 12.3884H55.4607C55.2257 14.4544 54.1554 15.4812 52.2496 15.4812C49.4353 15.4812 48.729 13.02 48.729 11.4254C48.729 9.83074 49.4462 7.30421 52.2932 7.30421Z" fill="#B1B1B1"/>
<path d="M59.0669 12.8909L58.2423 15.2354H57.1829L59.9661 7.43334H61.2511L63.9908 15.2354H62.8769L62.0741 12.8909H59.0669ZM60.5977 8.50213L59.3127 12.0554H61.7956L60.5962 8.50213H60.5977Z" fill="#B1B1B1"/>
<path d="M67.597 11.9263V15.2338H66.6013V7.43178H69.8233C71.365 7.43178 72.2316 8.25632 72.2316 9.72183C72.2316 11.0598 71.3323 11.9263 70.0488 11.9263H67.597ZM69.6724 11.0489C70.6245 11.0489 71.1923 10.5355 71.1923 9.67827C71.1923 8.82106 70.6245 8.30766 69.6724 8.30766H67.5954V11.0473H69.6724V11.0489Z" fill="#B1B1B1"/>
<path d="M75.9 15.2338H74.8934V7.43178H75.9V15.2338Z" fill="#B1B1B1"/>
<path d="M81.9674 15.2338H80.9717V8.30922H78.4032V7.43178H84.525V8.30922H81.9674V15.2338Z" fill="#B1B1B1"/>
<path d="M87.7345 12.8909L86.91 15.2354H85.8505L88.6337 7.43334H89.9188L92.6585 15.2354H91.5461L90.7433 12.8909H87.7345ZM89.2654 8.50213L87.9803 12.0554H90.4633L89.2654 8.50213Z" fill="#B1B1B1"/>
<path d="M96.1464 14.3564H100V15.2338H95.1523V7.43178H96.148V14.3564H96.1464Z" fill="#B1B1B1"/>
<path d="M46.1962 0H45.6128V22.7823H46.1962V0Z" fill="#E31B13"/>
<path fill-rule="evenodd" clip-rule="evenodd" d="M0 15.4796L3.7649 6.54501H5.63645L9.3749 15.4781H7.7476L4.88659 8.67793L3.35729 12.0943H5.1744L5.92427 13.8694H2.4114L1.70976 15.4781L0 15.4796Z" fill="black"/>
<path fill-rule="evenodd" clip-rule="evenodd" d="M12.4553 15.4796L16.2217 6.54501H18.0933L21.8302 15.4781H20.2029L17.3434 8.67793L15.8126 12.0943H17.6297L18.3795 13.8694H14.8667L14.165 15.4781L12.4553 15.4796Z" fill="black"/>
<path fill-rule="evenodd" clip-rule="evenodd" d="M6.23541 6.54501L10.0003 15.4812H11.8719L17.2034 2.62609H15.5745L11.122 13.3467C8.99375 8.59548 9.18355 9.3889 7.94518 6.54812L6.23541 6.54501Z" fill="black"/>
<path fill-rule="evenodd" clip-rule="evenodd" d="M21.964 6.52167V15.4796H27.1446V13.8477H23.5337V6.52167H21.964Z" fill="black"/>
<path d="M33.8374 10.9944C33.8374 12.6311 32.5088 13.9597 30.8721 13.9597C29.2355 13.9597 27.9069 12.6311 27.9069 10.9944C27.9069 9.35779 29.2355 8.02919 30.8721 8.02919C32.5088 8.02919 33.8374 9.35779 33.8374 10.9944ZM35.3589 10.9944C35.3589 8.51769 33.3489 6.50767 30.8721 6.50767C28.3954 6.50767 26.3854 8.51769 26.3854 10.9944C26.3854 13.4712 28.3954 15.4812 30.8721 15.4812C33.3489 15.4812 35.3589 13.4712 35.3589 10.9944Z" fill="black"/>
<path fill-rule="evenodd" clip-rule="evenodd" d="M35.6234 15.4796V6.51856H37.3783L40.9814 12.5299V6.52167H42.6787V15.4796L40.9394 15.4781L37.3331 9.47758V15.4796H35.6234Z" fill="black"/>
</svg>
