<svg width="100" height="23" viewBox="0 0 100 23" fill="none" xmlns="http://www.w3.org/2000/svg">
<path d="M52.293 7.30469C54.0058 7.30469 54.9906 8.14012 55.3002 9.85144H54.2828C54.0587 8.75931 53.4364 8.18213 52.1747 8.18213C50.6657 8.18213 49.7244 9.41272 49.7244 11.415C49.7244 13.4172 50.7092 14.6042 52.2603 14.6042C53.5656 14.6042 54.1972 13.8653 54.4337 12.3889H55.4605C55.2255 14.4549 54.1552 15.4817 52.2494 15.4817C49.4351 15.4817 48.7288 13.0205 48.7288 11.4258C48.7288 9.83121 49.446 7.30469 52.293 7.30469Z" fill="white"/>
<path d="M59.0671 12.8911L58.2426 15.2356H57.1831L59.9663 7.43359H61.2514L63.991 15.2356H62.8771L62.0744 12.8911H59.0671ZM60.598 8.50239L59.3129 12.0557H61.7959L60.5964 8.50239H60.598Z" fill="white"/>
<path d="M70.0473 11.9281H67.597V15.2356H66.6013V7.43359H69.8233C71.365 7.43359 72.2315 8.25814 72.2315 9.72365C72.2315 11.0616 71.3323 11.9281 70.0488 11.9281H70.0473ZM69.6724 11.0507C70.6245 11.0507 71.1923 10.5373 71.1923 9.68009C71.1923 8.82287 70.6245 8.30948 69.6724 8.30948H67.5954V11.0491H69.6724V11.0507Z" fill="white"/>
<path d="M75.8999 15.2356H74.8933V7.43359H75.8999V15.2356Z" fill="white"/>
<path d="M81.9673 15.2356H80.9716V8.31103H78.4031V7.43359H84.5249V8.31103H81.9673V15.2356Z" fill="white"/>
<path d="M87.7343 12.8911L86.9098 15.2356H85.8503L88.6336 7.43359H89.9186L92.6583 15.2356H91.5459L90.7432 12.8911H87.7359H87.7343ZM89.2652 8.50239L87.9802 12.0557H90.4631L89.2652 8.50239Z" fill="white"/>
<path d="M96.1462 14.3582H99.9998V15.2356H95.1521V7.43359H96.1478V14.3582H96.1462Z" fill="white"/>
<path d="M46.1962 0H45.6128V22.7823H46.1962V0Z" fill="white"/>
<path fill-rule="evenodd" clip-rule="evenodd" d="M0 15.4776L3.7649 6.54297H5.63645L9.3749 15.476H7.7476L4.88659 8.67589L3.35729 12.0923H5.1744L5.92427 13.8674H2.4114L1.70976 15.4745L0 15.4776Z" fill="white"/>
<path fill-rule="evenodd" clip-rule="evenodd" d="M12.4556 15.4776L16.222 6.54297H18.0936L21.8305 15.476H20.2032L17.3437 8.67589L15.8129 12.0923H17.63L18.3798 13.8674H14.867L14.1653 15.4745L12.4556 15.4776Z" fill="white"/>
<path fill-rule="evenodd" clip-rule="evenodd" d="M6.23535 6.54391L10.0002 15.4801H11.8718L17.2033 2.625H15.5745L11.1219 13.3456C8.99368 8.59438 9.18348 9.38781 7.94511 6.54702L6.23535 6.54391Z" fill="white"/>
<path fill-rule="evenodd" clip-rule="evenodd" d="M21.9639 6.52109V15.479H27.1445V13.8471H23.5336V6.51953L21.9639 6.52109Z" fill="white"/>
<path d="M33.8377 10.9907C33.8377 12.6273 32.5091 13.9559 30.8725 13.9559C29.2359 13.9559 27.9073 12.6273 27.9073 10.9907C27.9073 9.35403 29.2359 8.02542 30.8725 8.02542C32.5091 8.02542 33.8377 9.35403 33.8377 10.9907ZM35.3593 10.9907C35.3593 8.51392 33.3492 6.50391 30.8725 6.50391C28.3958 6.50391 26.3857 8.51392 26.3857 10.9907C26.3857 13.4674 28.3958 15.4774 30.8725 15.4774C33.3492 15.4774 35.3593 13.4674 35.3593 10.9907Z" fill="white"/>
<path fill-rule="evenodd" clip-rule="evenodd" d="M35.623 15.4783V6.51718L37.3779 6.51562L40.981 12.5286V6.52029H42.6783V15.4783L40.939 15.4767L37.3328 9.4762V15.4783H35.623Z" fill="white"/>
</svg>
